<?xml version="1.0" encoding="iso-8859-1"?>
<!-- Generator: Adobe Illustrator 16.0.0, SVG Export Plug-In . SVG Version: 6.00 Build 0)  -->
<!DOCTYPE svg PUBLIC "-//W3C//DTD SVG 1.1//EN" "http://www.w3.org/Graphics/SVG/1.1/DTD/svg11.dtd">
<svg xmlns="http://www.w3.org/2000/svg" xmlns:xlink="http://www.w3.org/1999/xlink" version="1.1" id="Capa_1" x="0px" y="0px" width="512px" height="512px" viewBox="0 0 400.74 400.74" style="enable-background:new 0 0 400.74 400.74;" xml:space="preserve">
<g>
	<g>
		<g>
			<path d="M240.151,160.27l-40.571,36.805c-0.742,0.634-1.066,0.364-1.291,0.272c-1.309-0.526-2.734-0.823-4.23-0.823     c-2.555,0-4.908,0.848-6.807,2.269c-0.271,0.203-0.908,0.732-1.629,0.305l-28.625-11.517c-3.795-1.634-8.197,0.117-9.832,3.913     c-1.635,3.796,0.117,8.198,3.914,9.833l33.523,13.487c0.584,0.152,0.918,0.68,1.123,0.899c2.082,2.229,5.041,3.626,8.332,3.626     c6.301,0,11.408-5.107,11.408-11.408c0-0.384,0.036-1.24,0.582-1.717l41.569-37.712c2.271-2.063,2.443-5.577,0.381-7.851     C245.938,158.379,242.425,158.207,240.151,160.27z" fill="#FFFFFF"/>
			<path d="M290.774,178.05c-3.428,0-3.891-0.586-4.072-1.317c-10.432-41.544-48.09-72.398-92.825-72.398     c-52.766,0-95.695,42.929-95.695,95.696c0,52.767,42.93,95.695,95.695,95.695c47.334,0,86.436-32.814,94.051-78.017     c-0.066-1.661,3.354-1.416,4.225-1.416c6.508,0,10.404-8.456,10.404-19.055C302.558,186.641,297.282,178.05,290.774,178.05z      M193.877,277.396c-42.658,0-77.365-34.707-77.365-77.365c0-42.66,34.707-77.366,77.365-77.366     c42.661,0,77.366,34.706,77.366,77.366C271.243,242.689,236.538,277.396,193.877,277.396z" fill="#FFFFFF"/>
		</g>
		<path d="M193.833,93.981c14.814,0,28.922,3.084,41.719,8.637c0.719,0.312,2.145,0.208,2.145-1.515V3c0,0,0-3-4.826-3    c-19.5,0-58.5,0-78,0c-4.902,0-4.902,3-4.902,3v97.81c0,2.768,1.695,1.999,2.553,1.632C165.209,97,179.175,93.981,193.833,93.981z    " fill="#FFFFFF"/>
		<path d="M193.831,306.76c-14.814,0-28.922-3.084-41.719-8.638c-0.719-0.312-2.145-0.208-2.145,1.515v98.104c0,0,0,3,4.826,3    c19.5,0,58.5,0,78,0c4.902,0,4.902-3,4.902-3V299.93c0-2.767-1.697-1.998-2.553-1.631    C222.454,303.74,208.489,306.76,193.831,306.76z" fill="#FFFFFF"/>
	</g>
</g>
<g>
</g>
<g>
</g>
<g>
</g>
<g>
</g>
<g>
</g>
<g>
</g>
<g>
</g>
<g>
</g>
<g>
</g>
<g>
</g>
<g>
</g>
<g>
</g>
<g>
</g>
<g>
</g>
<g>
</g>
</svg>
