<?xml version="1.0" encoding="iso-8859-1"?>
<!-- Generator: Adobe Illustrator 16.0.0, SVG Export Plug-In . SVG Version: 6.00 Build 0)  -->
<!DOCTYPE svg PUBLIC "-//W3C//DTD SVG 1.1//EN" "http://www.w3.org/Graphics/SVG/1.1/DTD/svg11.dtd">
<svg xmlns="http://www.w3.org/2000/svg" xmlns:xlink="http://www.w3.org/1999/xlink" version="1.1" id="Capa_1" x="0px" y="0px" width="512px" height="512px" viewBox="0 0 456.604 456.604" style="enable-background:new 0 0 456.604 456.604;" xml:space="preserve">
<g>
	<g>
		<path d="M145.866,248.588v-2.997c0-2.168-1.759-3.928-3.925-3.928s-3.925,1.76-3.925,3.928v2.997h-10.568    c-1.138,0-2.228,0.489-2.976,1.362c-0.743,0.87-1.08,2.02-0.899,3.154l3.561,23.636c0.323,2.144,2.356,3.578,4.462,3.294    c2.142-0.328,3.619-2.328,3.296-4.477l-2.883-19.119h6.007v7.895c0,2.164,1.759,3.928,3.925,3.928s3.925-1.764,3.925-3.928v-7.895    h5.911l-3.298,19.043c-0.375,2.133,1.058,4.164,3.194,4.537c0.222,0.031,0.457,0.056,0.679,0.056c1.865,0,3.522-1.343,3.851-3.258    l4.089-23.628c0.197-1.15-0.118-2.309-0.854-3.198c-0.755-0.882-1.843-1.395-3.005-1.395h-10.567V248.588z" fill="#FFFFFF"/>
		<path d="M327.446,248.588h-10.572v-2.997c0-2.168-1.763-3.928-3.923-3.928c-2.172,0-3.927,1.76-3.927,3.928v2.997h-10.58    c-1.143,0-2.229,0.489-2.974,1.362c-0.745,0.87-1.082,2.02-0.905,3.154l3.574,23.636c0.32,2.144,2.404,3.578,4.469,3.294    c2.14-0.328,3.618-2.328,3.29-4.477l-2.89-19.119h6.016v7.895c0,2.164,1.755,3.928,3.927,3.928c2.16,0,3.923-1.764,3.923-3.928    v-7.895h5.903l-3.302,19.043c-0.377,2.133,1.065,4.164,3.189,4.537c0.229,0.031,0.465,0.056,0.682,0.056    c1.871,0,3.526-1.343,3.854-3.258l4.108-23.628c0.192-1.15-0.121-2.309-0.857-3.198    C329.702,249.093,328.597,248.588,327.446,248.588z" fill="#FFFFFF"/>
		<circle cx="141.94" cy="225.711" r="5.236" fill="#FFFFFF"/>
		<path d="M312.936,220.476c2.897,0,5.241,2.345,5.241,5.236c0,2.889-2.344,5.236-5.241,5.236c-2.89,0-5.238-2.347-5.238-5.236    C307.697,222.82,310.046,220.476,312.936,220.476z" fill="#FFFFFF"/>
		<path d="M426.818,283.685c-0.469-0.997-1.295-1.703-2.269-2.039c-7.582-17.681-17.901-35.174-32.191-50.816    c-19.456-21.298-43.032-34.534-66.238-42.667c2.692-22.724,4.295-69.673-21.616-101.757c-17.185-21.268-42.928-32.053-76.5-32.053    c-33.897,0-59.979,10.868-77.494,32.298c-25.245,30.865-25.259,75.215-23.087,98.679c-27.709,8.794-54.922,24.884-72.034,53.906    c-8.387,14.23-15.144,28.549-20.622,42.487c-1.916-0.75-4.105,0.076-4.979,1.963L0.364,347.022    c-0.908,1.972-0.06,4.304,1.902,5.214c0.533,0.244,1.1,0.368,1.657,0.368c1.475,0,2.897-0.842,3.557-2.268l15.95-34.348    c-0.781,2.885-1.529,5.734-2.21,8.543c-10.271,42.118,25.639,77.721,68.988,77.721h274.906c42.174,0,79.867-33.763,73.476-74.61    l10.54,22.694c0.661,1.426,2.079,2.268,3.559,2.268c0.553,0,1.117-0.124,1.654-0.368c1.964-0.91,2.806-3.242,1.9-5.214    L426.818,283.685z M152.802,313.536h-24.569v-14.551h24.569V313.536z M161.521,291.127h-45.492    c-8.502-6.208-8.337-15.108-8.337-15.108l17.418-73.694h33.049l14.644,73.25C172.81,275.574,171.325,284.787,161.521,291.127z     M225.972,177.045c0,0-35.312-5.029-75.366,2.477c-1.453-20.562-0.547-55.184,18.174-78.029    c12.837-15.651,32.758-23.59,59.215-23.59c26.083,0,45.634,7.819,58.13,23.237c19.151,23.654,18.906,60.212,16.943,80.481    C261.304,172.234,225.972,177.045,225.972,177.045z M325.49,313.536h-24.562v-14.551h24.562V313.536z M334.223,291.127h-45.505    c-8.512-6.208-8.335-15.108-8.335-15.108l17.412-73.694h33.058l14.651,73.25C345.508,275.574,344.021,284.787,334.223,291.127z" fill="#FFFFFF"/>
	</g>
</g>
<g>
</g>
<g>
</g>
<g>
</g>
<g>
</g>
<g>
</g>
<g>
</g>
<g>
</g>
<g>
</g>
<g>
</g>
<g>
</g>
<g>
</g>
<g>
</g>
<g>
</g>
<g>
</g>
<g>
</g>
</svg>
